# xmcd CD database file
#
# Track frame offsets:
#	150
#	12160
#	30417
#	41085
#	53110
#	72992
#	85559
#	100280
#	117235
#	133522
#	146541
#	164455
#	184291
#	196412
#	211059
#
# Disc length: 3029 seconds
#
# Revision: 0
# Processed by: cddbd v1.5.1PL0 Copyright (c) Steve Scherf et al.
# Submitted via: CDex 1.50
#
DISCID=cb0bd30f
DTITLE=Duo L'Unic - Duo L'Unic
DYEAR=2003
DGENRE=Country
TTITLE0=Venez vous amuser
TTITLE1=Pourquoi
TTITLE2=Magasiner
TTITLE3=Champagne pour deux
TTITLE4=Dieu m'a écouté
TTITLE5=Nous formons un duo
TTITLE6=Derrière ces murs
TTITLE7=Maman chérie
TTITLE8=Je ne peux t'oublier
TTITLE9=Les hommes
TTITLE10=Pourquoi (musique différente)
TTITLE11=Dieu m'a écouté (musique différente)
TTITLE12=Nous formons un duo (musique différente)
TTITLE13=Derrière ces murs (musique différente)
TTITLE14=Je ne peux t'oublié (musique différente)
EXTD=YEAR: 2003
EXTT0=
EXTT1=
EXTT2=
EXTT3=
EXTT4=
EXTT5=
EXTT6=
EXTT7=
EXTT8=
EXTT9=
EXTT10=
EXTT11=
EXTT12=
EXTT13=
EXTT14=
PLAYORDER=
